/* XPM */
static char * close_pressed_xpm[] = {
"42 30 4 1",
" 	c None",
".	c #B8C500",
"+	c #EDF0DA",
"@	c #BECA4B",
"..........................................",
"..........................................",
"..........................................",
"..........................................",
"..........................................",
"..........................................",
"..........................................",
"..........................................",
"..........................................",
".......................+@......@+.........",
".......................@+@....@+@.........",
"........................@+@..@+@..........",
".........................@+@@+@...........",
"..........................@++@............",
"..........................@++@............",
".........................@+@@+@...........",
"........................@+@..@+@..........",
".......................@+@....@+@.........",
".......................+@......@+.........",
"..........................................",
"..........................................",
"..........................................",
"..........................................",
"..........................................",
"..........................................",
"..........................................",
"..........................................",
"..........................................",
"..........................................",
".........................................."};
