/* XPM */
static char * maximize_inactive_xpm[] = {
"30 30 3 1",
" 	c None",
".	c #FFFFFF",
"+	c #808084",
"..............................",
"..............................",
"..............................",
"..............................",
"..............................",
"..............................",
"..............................",
"..............................",
"..............................",
"..............................",
"............++++++++..........",
"............+......+..........",
"..........++++++++.+..........",
"..........+......+.+..........",
"..........+......+.+..........",
"..........+......+.+..........",
"..........+......+.+..........",
"..........+......+++..........",
"..........+......+............",
"..........++++++++............",
"..............................",
"..............................",
"..............................",
"..............................",
"..............................",
"..............................",
"..............................",
"..............................",
"..............................",
".............................."};
